<svg xmlns="http://www.w3.org/2000/svg" class="graphdiagram" viewBox="-5284.372438317228 -736.472563819455 3250.0843566654835 1507.0761535352538"><g class="layer relationships"><g class="related-pair"><g class="relationship" transform="translate(-4076.545202464653,-149.52111887121745) rotate(139.2477799594691)"><path class="relationship" d="M 176.21462653327893 4 L 459.8823578301849 4 L 459.8823578301849 16 L 491.8823578301849 0 L 459.8823578301849 -16 L 459.8823578301849 -4 L 176.21462653327893 -4 Z" fill="rgb(0, 0, 0)" stroke="rgb(51, 51, 51)" stroke-width="0px"/><text class="type" text-anchor="middle" baseline-shift="30%" alignment-baseline="alphabetic" x="-318.04849218173194" y="0" font-size="50px" font-family="&quot;Gill Sans&quot;, &quot;Gill Sans MT&quot;, Calibri, sans-serif" transform="rotate(180)">lives</text></g></g><g class="related-pair"><g class="relationship" transform="translate(-4076.545202464653,-149.52111887121745) rotate(179.69732549153457)"><path class="relationship" d="M 176.21462653327893 4 L 500.037992573627 4 L 500.037992573627 16 L 532.037992573627 0 L 500.037992573627 -16 L 500.037992573627 -4 L 176.21462653327893 -4 Z" fill="rgb(0, 0, 0)" stroke="rgb(51, 51, 51)" stroke-width="0px"/><text class="type" text-anchor="middle" baseline-shift="30%" alignment-baseline="alphabetic" transform="rotate(180)" x="-338.126309553453" y="0" font-size="50px" font-family="&quot;Gill Sans&quot;, &quot;Gill Sans MT&quot;, Calibri, sans-serif">works</text></g></g><g class="related-pair"><g class="relationship" transform="translate(-4076.545202464653,-149.52111887121745) rotate(31.40266321641388)"><path class="relationship" d="M 176.21462653327893 4 L 738.4461268928582 4 L 738.4461268928582 16 L 770.4461268928582 0 L 738.4461268928582 -16 L 738.4461268928582 -4 L 176.21462653327893 -4 Z" fill="rgb(0, 0, 0)" stroke="rgb(51, 51, 51)" stroke-width="0px"/><text class="type" text-anchor="middle" baseline-shift="30%" alignment-baseline="alphabetic" x="457.3303767130686" y="0" font-size="50px" font-family="&quot;Gill Sans&quot;, &quot;Gill Sans MT&quot;, Calibri, sans-serif">takes_loan</text></g></g><g class="related-pair"><g class="relationship" transform="translate(-3342.5967895507815,298.52973346710206) rotate(-13.811193211354215)"><path class="relationship" d="M 89.45493666031908 4 L 794.319887346279 4 L 794.319887346279 16 L 826.319887346279 0 L 794.319887346279 -16 L 794.319887346279 -4 L 89.45493666031908 -4 Z" fill="rgb(0, 0, 0)" stroke="rgb(51, 51, 51)" stroke-width="0px"/><text class="type" text-anchor="middle" baseline-shift="30%" alignment-baseline="alphabetic" x="441.887412003299" y="0" font-size="50px" font-family="&quot;Gill Sans&quot;, &quot;Gill Sans MT&quot;, Calibri, sans-serif">loan_status</text></g></g><g class="related-pair"><g class="relationship" transform="translate(-4076.545202464653,-149.52111887121745) rotate(4.245664626889065)"><path class="relationship" d="M 176.21462653327893 4 L 711.616598870641 4 L 711.616598870641 16 L 743.616598870641 0 L 711.616598870641 -16 L 711.616598870641 -4 L 176.21462653327893 -4 Z" fill="rgb(0, 0, 0)" stroke="rgb(51, 51, 51)" stroke-width="0px"/><text class="type" text-anchor="middle" baseline-shift="30%" alignment-baseline="alphabetic" x="443.91561270196" y="0" font-size="50px" font-family="&quot;Gill Sans&quot;, &quot;Gill Sans MT&quot;, Calibri, sans-serif">application_type</text></g></g><g class="related-pair"><g class="relationship" transform="translate(-3342.5967895507815,298.52973346710206) rotate(4.882720570103372)"><path class="relationship" d="M 89.45493666031908 4 L 641.5247238993311 4 L 641.5247238993311 16 L 673.5247238993311 0 L 641.5247238993311 -16 L 641.5247238993311 -4 L 89.45493666031908 -4 Z" fill="rgb(0, 0, 0)" stroke="rgb(51, 51, 51)" stroke-width="0px"/><text class="type" text-anchor="middle" baseline-shift="30%" alignment-baseline="alphabetic" x="365.4898302798251" y="0" font-size="50px" font-family="&quot;Gill Sans&quot;, &quot;Gill Sans MT&quot;, Calibri, sans-serif">loan_term</text></g></g><g class="related-pair"><g class="relationship" transform="translate(-4076.545202464653,-149.52111887121745) rotate(-17.463338275902334)"><path class="relationship" d="M 176.21462653327893 4 L 750.8597303243924 4 L 750.8597303243924 16 L 782.8597303243924 0 L 750.8597303243924 -16 L 750.8597303243924 -4 L 176.21462653327893 -4 Z" fill="rgb(0, 0, 0)" stroke="rgb(51, 51, 51)" stroke-width="0px"/><text class="type" text-anchor="middle" baseline-shift="30%" alignment-baseline="alphabetic" x="463.5371784288357" y="0" font-size="50px" font-family="&quot;Gill Sans&quot;, &quot;Gill Sans MT&quot;, Calibri, sans-serif">application_purpose</text></g></g></g><g class="layer nodes"><circle class="node node-id-0" r="84.92419889539804" fill="rgb(255, 255, 255)" stroke="rgb(0, 0, 0)" stroke-width="8px" cx="-2443.1325855255127" cy="77.4138069152832"/><circle class="node node-id-1" r="161.21462653327893" fill="rgb(255, 255, 255)" stroke="rgb(0, 0, 0)" stroke-width="8px" cx="-4076.545202464653" cy="-149.52111887121745"/><circle class="node node-id-2" r="185.88319268278636" fill="rgb(255, 255, 255)" stroke="rgb(0, 0, 0)" stroke-width="8px" cx="-3134.6373168945315" cy="-79.59693603515626"/><circle class="node node-id-3" r="105.20469824783333" fill="rgb(255, 255, 255)" stroke="rgb(0, 0, 0)" stroke-width="8px" cx="-4540.225441988363" cy="250.04264286586732"/><circle class="node node-id-4" r="113.64923100695951" fill="rgb(255, 255, 255)" stroke="rgb(0, 0, 0)" stroke-width="8px" cx="-4737.223207310269" cy="-146.0309446864314"/><g class="caption"><text class="caption node" text-anchor="middle" alignment-baseline="central" x="-2443.1325855255127" y="77.4138069152832" fill="rgb(51, 51, 51)" font-size="50px" font-family="&quot;Gill Sans&quot;, &quot;Gill Sans MT&quot;, Calibri, sans-serif">Status</text></g><g class="caption"><text class="caption node" text-anchor="middle" alignment-baseline="central" x="-4076.545202464653" y="-149.52111887121745" fill="rgb(51, 51, 51)" font-size="50px" font-family="&quot;Gill Sans&quot;, &quot;Gill Sans MT&quot;, Calibri, sans-serif">ApplicationID</text></g><g class="caption"><text class="caption node" text-anchor="middle" alignment-baseline="central" x="-3134.6373168945315" y="-79.59693603515626" fill="rgb(51, 51, 51)" font-size="50px" font-family="&quot;Gill Sans&quot;, &quot;Gill Sans MT&quot;, Calibri, sans-serif">ApplicationType</text></g><g class="caption"><text class="caption node" text-anchor="middle" alignment-baseline="central" x="-4540.225441988363" y="250.04264286586732" fill="rgb(51, 51, 51)" font-size="50px" font-family="&quot;Gill Sans&quot;, &quot;Gill Sans MT&quot;, Calibri, sans-serif">Address</text></g><g class="caption"><text class="caption node" text-anchor="middle" alignment-baseline="central" x="-4737.223207310269" y="-171.0309446864314" fill="rgb(51, 51, 51)" font-size="50px" font-family="&quot;Gill Sans&quot;, &quot;Gill Sans MT&quot;, Calibri, sans-serif">Work</text><text class="caption node" text-anchor="middle" alignment-baseline="central" x="-4737.223207310269" y="-121.03094468643141" fill="rgb(51, 51, 51)" font-size="50px" font-family="&quot;Gill Sans&quot;, &quot;Gill Sans MT&quot;, Calibri, sans-serif">Details</text></g><circle class="node node-id-7" r="74.45493666031908" fill="rgb(255, 255, 255)" stroke="rgb(0, 0, 0)" stroke-width="8px" cx="-3342.5967895507815" cy="298.52973346710206"/><g class="caption"><text class="caption node" text-anchor="middle" alignment-baseline="central" x="-3342.5967895507815" y="298.52973346710206" fill="rgb(51, 51, 51)" font-size="50px" font-family="&quot;Gill Sans&quot;, &quot;Gill Sans MT&quot;, Calibri, sans-serif">Loan</text></g><circle class="node node-id-7" r="80.78389757857624" fill="rgb(255, 255, 255)" stroke="rgb(0, 0, 0)" stroke-width="8px" cx="-2576.0799804687504" cy="364.0105434417725"/><g class="caption"><text class="caption node" text-anchor="middle" alignment-baseline="central" x="-2576.0799804687504" y="364.0105434417725" fill="rgb(51, 51, 51)" font-size="50px" font-family="&quot;Gill Sans&quot;, &quot;Gill Sans MT&quot;, Calibri, sans-serif">Term</text></g><circle class="node node-id-7" r="105.68333173107735" fill="rgb(255, 255, 255)" stroke="rgb(0, 0, 0)" stroke-width="8px" cx="-3214.6471923828126" cy="-420.6703125"/><g class="caption"><text class="caption node" text-anchor="middle" alignment-baseline="central" x="-3214.6471923828126" y="-420.6703125" fill="rgb(51, 51, 51)" font-size="50px" font-family="&quot;Gill Sans&quot;, &quot;Gill Sans MT&quot;, Calibri, sans-serif">Purpose</text></g></g><g class="layer properties"><g class="speech-bubble node-speech-bubble" transform="translate(-2358.2083866301145,77.4138069152832) "><path class="speech-bubble-outline" transform="scale(1,1) " d="M 0 0 L 20 -10 L 20 -25 A 10 10 0 0 1 30 -35 L 208 -35 A 10 10 0 0 1 218 -25 L 218 25 A 10 10 0 0 1 208 35 L 30 35 A 10 10 0 0 1 20 25 L 20 10 Z" fill="rgb(255, 255, 255)" stroke="rgb(0, 0, 0)" stroke-width="3px"/><text class="speech-bubble-content property-key" x="173" y="0" alignment-baseline="central" text-anchor="end" font-size="50px" font-family="&quot;Gill Sans&quot;, &quot;Gill Sans MT&quot;, Calibri, sans-serif" xml:space="preserve">status: </text><text class="speech-bubble-content property-value" x="173" y="0" alignment-baseline="central" font-size="50px" font-family="&quot;Gill Sans&quot;, &quot;Gill Sans MT&quot;, Calibri, sans-serif">C</text></g><g class="speech-bubble node-speech-bubble" transform="translate(-4076.545202464653,-310.73574540449636) "><path class="speech-bubble-outline" transform="scale(1,-1) " d="M 0 0 L -10 20 L -244 20 A 10 10 0 0 0 -254 30 L -254 180 A 10 10 0 0 0 -244 190 L 244 190 A 10 10 0 0 0 254 180 L 254 30 A 10 10 0 0 0 244 20 L 10 20 Z" fill="rgb(255, 255, 255)" stroke="rgb(0, 0, 0)" stroke-width="3px"/><text class="speech-bubble-content property-key" x="16" y="-155" alignment-baseline="central" text-anchor="end" font-size="50px" font-family="&quot;Gill Sans&quot;, &quot;Gill Sans MT&quot;, Calibri, sans-serif" xml:space="preserve">member_id: </text><text class="speech-bubble-content property-key" x="16" y="-105" alignment-baseline="central" text-anchor="end" font-size="50px" font-family="&quot;Gill Sans&quot;, &quot;Gill Sans MT&quot;, Calibri, sans-serif" xml:space="preserve">open_acc: </text><text class="speech-bubble-content property-value" x="16" y="-155" alignment-baseline="central" font-size="50px" font-family="&quot;Gill Sans&quot;, &quot;Gill Sans MT&quot;, Calibri, sans-serif">1212</text><text class="speech-bubble-content property-value" x="16" y="-105" alignment-baseline="central" font-size="50px" font-family="&quot;Gill Sans&quot;, &quot;Gill Sans MT&quot;, Calibri, sans-serif">2018/01/01</text><text class="speech-bubble-content property-key" x="16" y="-55" alignment-baseline="central" text-anchor="end" font-size="50px" font-family="&quot;Gill Sans&quot;, &quot;Gill Sans MT&quot;, Calibri, sans-serif" xml:space="preserve">pub_rec: </text><text class="speech-bubble-content property-value" x="16" y="-55" alignment-baseline="central" font-size="50px" font-family="&quot;Gill Sans&quot;, &quot;Gill Sans MT&quot;, Calibri, sans-serif">y</text></g><g class="speech-bubble node-speech-bubble" transform="translate(-2948.754124211745,-79.59693603515626) "><path class="speech-bubble-outline" transform="scale(1,1) " d="M 0 0 L 20 -10 L 20 -25 A 10 10 0 0 1 30 -35 L 332 -35 A 10 10 0 0 1 342 -25 L 342 25 A 10 10 0 0 1 332 35 L 30 35 A 10 10 0 0 1 20 25 L 20 10 Z" fill="rgb(255, 255, 255)" stroke="rgb(0, 0, 0)" stroke-width="3px"/><text class="speech-bubble-content property-key" x="143" y="0" alignment-baseline="central" text-anchor="end" font-size="50px" font-family="&quot;Gill Sans&quot;, &quot;Gill Sans MT&quot;, Calibri, sans-serif" xml:space="preserve">type: </text><text class="speech-bubble-content property-value" x="143" y="0" alignment-baseline="central" font-size="50px" font-family="&quot;Gill Sans&quot;, &quot;Gill Sans MT&quot;, Calibri, sans-serif">Individual</text></g><g class="speech-bubble node-speech-bubble" transform="translate(-4614.616397532091,324.43359840959477) "><path class="speech-bubble-outline" transform="scale(-1,1) " d="M 0 0 L 30 20 L 389 20 A 10 10 0 0 1 399 30 L 399 130 A 10 10 0 0 1 389 140 L 30 140 A 10 10 0 0 1 20 130 L 20 30 Z" fill="rgb(255, 255, 255)" stroke="rgb(0, 0, 0)" stroke-width="3px"/><text class="speech-bubble-content property-key" x="-180" y="55" alignment-baseline="central" text-anchor="end" font-size="50px" font-family="&quot;Gill Sans&quot;, &quot;Gill Sans MT&quot;, Calibri, sans-serif" xml:space="preserve">zip_code: </text><text class="speech-bubble-content property-value" x="-180" y="55" alignment-baseline="central" font-size="50px" font-family="&quot;Gill Sans&quot;, &quot;Gill Sans MT&quot;, Calibri, sans-serif">232114</text><text class="speech-bubble-content property-key" x="-180" y="105" alignment-baseline="central" text-anchor="end" font-size="50px" font-family="&quot;Gill Sans&quot;, &quot;Gill Sans MT&quot;, Calibri, sans-serif" xml:space="preserve">state: </text><text class="speech-bubble-content property-value" x="-180" y="105" alignment-baseline="central" font-size="50px" font-family="&quot;Gill Sans&quot;, &quot;Gill Sans MT&quot;, Calibri, sans-serif">xyz</text></g><g class="speech-bubble node-speech-bubble" transform="translate(-4850.872438317228,-146.0309446864314) "><path class="speech-bubble-outline" transform="scale(-1,1) " d="M 0 0 L 20 -10 L 20 -75 A 10 10 0 0 1 30 -85 L 422 -85 A 10 10 0 0 1 432 -75 L 432 75 A 10 10 0 0 1 422 85 L 30 85 A 10 10 0 0 1 20 75 L 20 10 Z" fill="rgb(255, 255, 255)" stroke="rgb(0, 0, 0)" stroke-width="3px"/><text class="speech-bubble-content property-key" x="-201" y="-50" alignment-baseline="central" text-anchor="end" font-size="50px" font-family="&quot;Gill Sans&quot;, &quot;Gill Sans MT&quot;, Calibri, sans-serif" xml:space="preserve">works: </text><text class="speech-bubble-content property-value" x="-201" y="-50" alignment-baseline="central" font-size="50px" font-family="&quot;Gill Sans&quot;, &quot;Gill Sans MT&quot;, Calibri, sans-serif">Y</text><text class="speech-bubble-content property-key" x="-201" y="0" alignment-baseline="central" text-anchor="end" font-size="50px" font-family="&quot;Gill Sans&quot;, &quot;Gill Sans MT&quot;, Calibri, sans-serif" xml:space="preserve">emp_len: </text><text class="speech-bubble-content property-key" x="-201" y="50" alignment-baseline="central" text-anchor="end" font-size="50px" font-family="&quot;Gill Sans&quot;, &quot;Gill Sans MT&quot;, Calibri, sans-serif" xml:space="preserve">emp_title: </text><text class="speech-bubble-content property-value" x="-201" y="0" alignment-baseline="central" font-size="50px" font-family="&quot;Gill Sans&quot;, &quot;Gill Sans MT&quot;, Calibri, sans-serif">a</text><text class="speech-bubble-content property-value" x="-201" y="50" alignment-baseline="central" font-size="50px" font-family="&quot;Gill Sans&quot;, &quot;Gill Sans MT&quot;, Calibri, sans-serif">Manager</text></g><g class="speech-bubble relationship-speech-bubble" transform="translate(-4317.479559057521,58.09747179988244) "><path class="speech-bubble-outline" transform="scale(1,1) " d="M 0 0 L 30 20 L 442 20 A 10 10 0 0 1 452 30 L 452 80 A 10 10 0 0 1 442 90 L 30 90 A 10 10 0 0 1 20 80 L 20 30 Z" fill="rgb(255, 255, 255)" stroke="rgb(0, 0, 0)" stroke-width="3px"/><text class="speech-bubble-content property-key" x="412" y="55" alignment-baseline="central" text-anchor="end" font-size="50px" font-family="&quot;Gill Sans&quot;, &quot;Gill Sans MT&quot;, Calibri, sans-serif" xml:space="preserve">home_ownership: </text><text class="speech-bubble-content property-value" x="412" y="55" alignment-baseline="central" font-size="50px" font-family="&quot;Gill Sans&quot;, &quot;Gill Sans MT&quot;, Calibri, sans-serif">T</text></g><g class="speech-bubble node-speech-bubble" transform="translate(-3342.5967895507815,372.98467012742117) "><path class="speech-bubble-outline" transform="scale(1,1) " d="M 0 0 L -10 20 L -247.5 20 A 10 10 0 0 0 -257.5 30 L -257.5 180 A 10 10 0 0 0 -247.5 190 L 247.5 190 A 10 10 0 0 0 257.5 180 L 257.5 30 A 10 10 0 0 0 247.5 20 L 10 20 Z" fill="rgb(255, 255, 255)" stroke="rgb(0, 0, 0)" stroke-width="3px"/><text class="speech-bubble-content property-key" x="97.5" y="55" alignment-baseline="central" text-anchor="end" font-size="50px" font-family="&quot;Gill Sans&quot;, &quot;Gill Sans MT&quot;, Calibri, sans-serif" xml:space="preserve">loan_amount: </text><text class="speech-bubble-content property-value" x="97.5" y="55" alignment-baseline="central" font-size="50px" font-family="&quot;Gill Sans&quot;, &quot;Gill Sans MT&quot;, Calibri, sans-serif">400000</text><text class="speech-bubble-content property-key" x="97.5" y="105" alignment-baseline="central" text-anchor="end" font-size="50px" font-family="&quot;Gill Sans&quot;, &quot;Gill Sans MT&quot;, Calibri, sans-serif" xml:space="preserve">total_bal_id: </text><text class="speech-bubble-content property-key" x="97.5" y="155" alignment-baseline="central" text-anchor="end" font-size="50px" font-family="&quot;Gill Sans&quot;, &quot;Gill Sans MT&quot;, Calibri, sans-serif" xml:space="preserve">funded_amount: </text><text class="speech-bubble-content property-value" x="97.5" y="105" alignment-baseline="central" font-size="50px" font-family="&quot;Gill Sans&quot;, &quot;Gill Sans MT&quot;, Calibri, sans-serif">121212</text><text class="speech-bubble-content property-value" x="97.5" y="155" alignment-baseline="central" font-size="50px" font-family="&quot;Gill Sans&quot;, &quot;Gill Sans MT&quot;, Calibri, sans-serif">20000</text></g><g class="speech-bubble node-speech-bubble" transform="translate(-2495.296082890174,364.0105434417725) "><path class="speech-bubble-outline" transform="scale(1,1) " d="M 0 0 L 20 -10 L 20 -25 A 10 10 0 0 1 30 -35 L 403 -35 A 10 10 0 0 1 413 -25 L 413 25 A 10 10 0 0 1 403 35 L 30 35 A 10 10 0 0 1 20 25 L 20 10 Z" fill="rgb(255, 255, 255)" stroke="rgb(0, 0, 0)" stroke-width="3px"/><text class="speech-bubble-content property-key" x="378" y="0" alignment-baseline="central" text-anchor="end" font-size="50px" font-family="&quot;Gill Sans&quot;, &quot;Gill Sans MT&quot;, Calibri, sans-serif" xml:space="preserve">no_of_payment: </text><text class="speech-bubble-content property-value" x="378" y="0" alignment-baseline="central" font-size="50px" font-family="&quot;Gill Sans&quot;, &quot;Gill Sans MT&quot;, Calibri, sans-serif">2</text></g></g><g class="layer overlay"><circle class="node overlay" r="88.92419889539804" stroke="none" fill="rgba(255, 255, 255, 0)" cx="-2443.1325855255127" cy="77.4138069152832"/><circle class="node overlay" r="165.21462653327893" stroke="none" fill="rgba(255, 255, 255, 0)" cx="-4076.545202464653" cy="-149.52111887121745"/><circle class="node overlay" r="189.88319268278636" stroke="none" fill="rgba(255, 255, 255, 0)" cx="-3134.6373168945315" cy="-79.59693603515626"/><circle class="node overlay" r="109.20469824783333" stroke="none" fill="rgba(255, 255, 255, 0)" cx="-4540.225441988363" cy="250.04264286586732"/><circle class="node overlay" r="117.64923100695951" stroke="none" fill="rgba(255, 255, 255, 0)" cx="-4737.223207310269" cy="-146.0309446864314"/><circle class="node ring" r="93.92419889539804" fill="none" stroke="rgba(255, 255, 255, 0)" stroke-width="10px" cx="-2443.1325855255127" cy="77.4138069152832"/><circle class="node ring" r="170.21462653327893" fill="none" stroke="rgba(255, 255, 255, 0)" stroke-width="10px" cx="-4076.545202464653" cy="-149.52111887121745"/><circle class="node ring" r="194.88319268278636" fill="none" stroke="rgba(255, 255, 255, 0)" stroke-width="10px" cx="-3134.6373168945315" cy="-79.59693603515626"/><circle class="node ring" r="114.20469824783333" fill="none" stroke="rgba(255, 255, 255, 0)" stroke-width="10px" cx="-4540.225441988363" cy="250.04264286586732"/><circle class="node ring" r="122.64923100695951" fill="none" stroke="rgba(255, 255, 255, 0)" stroke-width="10px" cx="-4737.223207310269" cy="-146.0309446864314"/><path class="relationship overlay" fill="rgba(255, 255, 255, 0)" stroke="rgba(255, 255, 255, 0)" stroke-width="10px" transform="translate(-4076.545202464653,-149.52111887121745) rotate(139.2477799594691)" d="M 176.21462653327893 4 L 459.8823578301849 4 L 459.8823578301849 16 L 491.8823578301849 0 L 459.8823578301849 -16 L 459.8823578301849 -4 L 176.21462653327893 -4 Z"/><path class="relationship overlay" fill="rgba(255, 255, 255, 0)" stroke="rgba(255, 255, 255, 0)" stroke-width="10px" transform="translate(-4076.545202464653,-149.52111887121745) rotate(179.69732549153457)" d="M 176.21462653327893 4 L 500.037992573627 4 L 500.037992573627 16 L 532.037992573627 0 L 500.037992573627 -16 L 500.037992573627 -4 L 176.21462653327893 -4 Z"/><path class="relationship overlay" fill="rgba(255, 255, 255, 0)" stroke="rgba(255, 255, 255, 0)" stroke-width="10px" transform="translate(-4076.545202464653,-149.52111887121745) rotate(31.40266321641388)" d="M 176.21462653327893 4 L 738.4461268928582 4 L 738.4461268928582 16 L 770.4461268928582 0 L 738.4461268928582 -16 L 738.4461268928582 -4 L 176.21462653327893 -4 Z"/><path class="relationship overlay" fill="rgba(255, 255, 255, 0)" stroke="rgba(255, 255, 255, 0)" stroke-width="10px" transform="translate(-3342.5967895507815,298.52973346710206) rotate(-13.811193211354215)" d="M 89.45493666031908 4 L 794.319887346279 4 L 794.319887346279 16 L 826.319887346279 0 L 794.319887346279 -16 L 794.319887346279 -4 L 89.45493666031908 -4 Z"/><circle class="node overlay" r="78.45493666031908" stroke="none" fill="rgba(255, 255, 255, 0)" cx="-3342.5967895507815" cy="298.52973346710206"/><circle class="node ring" r="83.45493666031908" fill="none" stroke="rgba(255, 255, 255, 0)" stroke-width="10px" cx="-3342.5967895507815" cy="298.52973346710206"/><path class="relationship overlay" fill="rgba(255, 255, 255, 0)" stroke="rgba(255, 255, 255, 0)" stroke-width="10px" transform="translate(-4076.545202464653,-149.52111887121745) rotate(4.245664626889065)" d="M 176.21462653327893 4 L 711.616598870641 4 L 711.616598870641 16 L 743.616598870641 0 L 711.616598870641 -16 L 711.616598870641 -4 L 176.21462653327893 -4 Z"/><circle class="node overlay" r="84.78389757857624" stroke="none" fill="rgba(255, 255, 255, 0)" cx="-2576.0799804687504" cy="364.0105434417725"/><circle class="node ring" r="89.78389757857624" fill="none" stroke="rgba(255, 255, 255, 0)" stroke-width="10px" cx="-2576.0799804687504" cy="364.0105434417725"/><path class="relationship overlay" fill="rgba(255, 255, 255, 0)" stroke="rgba(255, 255, 255, 0)" stroke-width="10px" transform="translate(-3342.5967895507815,298.52973346710206) rotate(4.882720570103372)" d="M 89.45493666031908 4 L 641.5247238993311 4 L 641.5247238993311 16 L 673.5247238993311 0 L 641.5247238993311 -16 L 641.5247238993311 -4 L 89.45493666031908 -4 Z"/><circle class="node overlay" r="109.68333173107735" stroke="none" fill="rgba(255, 255, 255, 0)" cx="-3214.6471923828126" cy="-420.6703125"/><circle class="node ring" r="114.68333173107735" fill="none" stroke="rgba(255, 255, 255, 0)" stroke-width="10px" cx="-3214.6471923828126" cy="-420.6703125"/><path class="relationship overlay" fill="rgba(255, 255, 255, 0)" stroke="rgba(255, 255, 255, 0)" stroke-width="10px" transform="translate(-4076.545202464653,-149.52111887121745) rotate(-17.463338275902334)" d="M 176.21462653327893 4 L 750.8597303243924 4 L 750.8597303243924 16 L 782.8597303243924 0 L 750.8597303243924 -16 L 750.8597303243924 -4 L 176.21462653327893 -4 Z"/></g></svg>